<?xml version="1.0" encoding="UTF-8"?>
<svg width="512px" height="512px" viewBox="0 0 512 512" version="1.1" xmlns="http://www.w3.org/2000/svg" xmlns:xlink="http://www.w3.org/1999/xlink">
    <title>512@svg</title>
    <defs>
        <rect id="path-1" x="0" y="0" width="504" height="492.013879" rx="24"></rect>
        <filter x="-1.0%" y="-0.8%" width="102.0%" height="102.0%" filterUnits="objectBoundingBox" id="filter-2">
            <feOffset dx="0" dy="1" in="SourceAlpha" result="shadowOffsetOuter1"></feOffset>
            <feGaussianBlur stdDeviation="1.5" in="shadowOffsetOuter1" result="shadowBlurOuter1"></feGaussianBlur>
            <feColorMatrix values="0 0 0 0 0   0 0 0 0 0   0 0 0 0 0  0 0 0 0.2 0" type="matrix" in="shadowBlurOuter1" result="shadowMatrixOuter1"></feColorMatrix>
            <feMorphology radius="0.5" operator="erode" in="SourceAlpha" result="shadowSpreadOuter2"></feMorphology>
            <feOffset dx="0" dy="2" in="shadowSpreadOuter2" result="shadowOffsetOuter2"></feOffset>
            <feGaussianBlur stdDeviation="0.5" in="shadowOffsetOuter2" result="shadowBlurOuter2"></feGaussianBlur>
            <feColorMatrix values="0 0 0 0 0   0 0 0 0 0   0 0 0 0 0  0 0 0 0.12 0" type="matrix" in="shadowBlurOuter2" result="shadowMatrixOuter2"></feColorMatrix>
            <feOffset dx="0" dy="1" in="SourceAlpha" result="shadowOffsetOuter3"></feOffset>
            <feGaussianBlur stdDeviation="0.5" in="shadowOffsetOuter3" result="shadowBlurOuter3"></feGaussianBlur>
            <feColorMatrix values="0 0 0 0 0   0 0 0 0 0   0 0 0 0 0  0 0 0 0.14 0" type="matrix" in="shadowBlurOuter3" result="shadowMatrixOuter3"></feColorMatrix>
            <feMerge>
                <feMergeNode in="shadowMatrixOuter1"></feMergeNode>
                <feMergeNode in="shadowMatrixOuter2"></feMergeNode>
                <feMergeNode in="shadowMatrixOuter3"></feMergeNode>
            </feMerge>
        </filter>
    </defs>
    <g id="512" stroke="none" stroke-width="1" fill="none" fill-rule="evenodd">
        <g id="Group-2" transform="translate(4.000000, 10.000000)">
            <g id="Rectangle">
                <use fill="black" fill-opacity="1" filter="url(#filter-2)" xlink:href="#path-1"></use>
                <use fill="#0D2142" fill-rule="evenodd" xlink:href="#path-1"></use>
            </g>
            <g id="Group" transform="translate(103.877863, 46.126301)">
                <path d="M0,47.9634372 C0,74.4703804 21.7891073,95.9347904 48.6283777,95.9347904 C75.4756706,95.9347904 97.2366991,74.4703804 97.2366991,47.9634372 C97.2366991,21.472326 75.4756706,0 48.6283777,0 C21.7891073,0 0,21.472326 0,47.9634372" id="Fill-175" fill="#D9373E"></path>
                <path d="M152.89078,361.888843 C152.89078,362.201528 152.850668,362.494422 152.766431,362.775443 L152.489655,363.472056 C152.489655,363.472056 152.481633,363.483931 152.481633,363.491847 C147.439492,376.106096 138.358023,387.528978 125.750666,392.959398 C119.489106,395.662734 112.585745,397.154913 105.325384,397.154913 C102.545588,397.154913 99.8018931,396.933263 97.146446,396.509753 C97.146446,396.509753 96.2840273,396.379138 96.2760048,396.371222 C92.3088791,395.702315 88.5423158,394.70489 84.9642812,393.414572 C17.2864797,368.953931 16.3558698,239.292747 16.3558698,232.188078 L16.3558698,231.887268 L16.3558698,126.912331 C16.3558698,121.319631 20.6398843,115.073856 28.3414833,115.073856 C29.5970044,115.08573 70.700278,115.073856 72.9706452,115.073856 C77.8483246,115.073856 84.9642812,119.099175 84.9642812,126.912331 C84.9642812,126.912331 82.3369128,228.012354 84.9642812,268.910703 C85.6100924,279.090763 86.5928485,289.425185 88.0248646,299.363805 C91.0613805,320.67781 96.1516561,340.194868 104.47901,352.504349 C104.487033,352.516223 104.499066,352.532055 104.507089,352.532055 C106.003285,354.764385 107.615807,356.743401 109.336633,358.469103 L109.344656,358.477019 C113.957593,363.080211 119.521196,365.621268 125.73061,366.056652 C126.741445,366.155602 127.772336,366.096232 128.807238,366.096232 C135.750711,366.096232 142.112553,363.634336 147.042378,359.557562 C147.194806,359.426947 147.347233,359.296332 147.499661,359.165717 C148.065247,358.761998 148.739137,358.528474 149.485229,358.528474 C151.366505,358.528474 152.89078,360.032526 152.89078,361.888843" id="Fill-177" fill="#FFFEFE"></path>
                <path d="M291.747803,115.07346 C286.039795,115.07346 257.764497,115.085335 247.126664,115.07346 C239.356873,115.015409 235.133028,121.382564 235.133028,126.911936 C235.133028,132.441307 236.300301,242.561686 235.133028,282.38345 C234.631621,288.435282 233.977788,294.289212 233.139437,299.739422 C230.877092,314.613708 227.266967,326.551134 221.675285,331.716366 C221.623139,331.775737 220.612304,332.626714 220.487956,332.717749 C220.375641,332.796909 219.946437,333.077929 219.842144,333.129384 C219.709773,333.220419 218.751085,333.715173 218.594646,333.774543 C217.41935,334.300962 216.151795,334.550318 214.824071,334.522611 C213.729,334.542401 212.666019,334.372206 211.671229,334.008067 C211.651173,333.996193 211.386431,333.897242 211.266093,333.845788 C209.894246,333.279789 208.594601,332.341735 207.399249,331.102871 C207.399249,331.090997 207.359136,331.051417 207.347102,331.039543 C202.152534,325.549752 198.76704,314.027919 196.588931,299.798793 C195.75058,294.360456 195.168949,288.5184 194.667543,282.470527 C194.667543,282.470527 194.350654,129.908166 194.350654,126.911936 C194.398789,122.815372 191.566847,115.07346 182.36504,115.07346 C180.523877,114.942845 139.208007,115.07346 137.731867,115.07346 C130.206763,115.07346 125.750265,120.250567 125.750265,126.911936 C125.738231,129.132392 125.750265,300.586441 125.750265,300.586441 C125.750265,300.586441 125.565748,305.632933 125.750265,310.315285 C125.750265,314.30894 125.790378,317.799924 125.902692,320.839693 C125.902692,320.891148 125.906704,320.934686 125.906704,320.98614 C125.890659,321.318615 125.858569,321.643174 125.858569,321.979607 C125.858569,323.060149 125.966872,324.109028 126.127322,325.146032 C126.131334,325.197487 126.131334,325.256857 126.139356,325.308312 L126.155401,325.324144 C127.779957,335.223183 136.45629,342.786983 146.945707,342.786983 C146.961752,342.786983 146.977797,342.786983 146.989831,342.786983 L147.090112,342.786983 C152.276658,342.806773 159.661368,342.343683 159.661368,342.343683 C161.462419,342.252649 163.383808,343.068003 163.760865,346.784596 C166.340099,367.520728 176.340144,385.149804 194.350654,392.939212 C200.616226,395.654422 207.543654,397.158475 214.824071,397.158475 C217.688103,397.158475 220.499989,396.924951 223.227639,396.481651 L223.227639,396.509357 C227.411372,395.856282 231.378498,394.846984 235.133028,393.505211 C293.003324,372.899694 302.26931,275.559802 303.741439,242.723965 L303.741439,126.911936 C303.741439,121.382564 298.683253,115.015409 291.747803,115.07346" id="Fill-179" fill="#FFFEFE"></path>
            </g>
        </g>
    </g>
</svg>