<?xml version="1.0" encoding="UTF-8"?>
<svg width="171px" height="171px" viewBox="0 0 171 171" version="1.1" xmlns="http://www.w3.org/2000/svg" xmlns:xlink="http://www.w3.org/1999/xlink">
    <title>LOGO@DACOMSA</title>
    <defs>
        <circle id="path-1" cx="58.5" cy="58.5" r="58.5"></circle>
        <filter x="-42.7%" y="-23.1%" width="185.5%" height="185.5%" filterUnits="objectBoundingBox" id="filter-2">
            <feMorphology radius="4.5" operator="dilate" in="SourceAlpha" result="shadowSpreadOuter1"></feMorphology>
            <feOffset dx="0" dy="23" in="shadowSpreadOuter1" result="shadowOffsetOuter1"></feOffset>
            <feGaussianBlur stdDeviation="10" in="shadowOffsetOuter1" result="shadowBlurOuter1"></feGaussianBlur>
            <feComposite in="shadowBlurOuter1" in2="SourceAlpha" operator="out" result="shadowBlurOuter1"></feComposite>
            <feColorMatrix values="0 0 0 0 0   0 0 0 0 0   0 0 0 0 0  0 0 0 0.10385708 0" type="matrix" in="shadowBlurOuter1"></feColorMatrix>
        </filter>
        <polygon id="path-3" points="0 0.502840909 49.4971023 0.502840909 49.4971023 50 0 50"></polygon>
        <polygon id="path-5" points="0 0.643636364 63.3563636 0.643636364 63.3563636 64 0 64"></polygon>
    </defs>
    <g id="P01" stroke="none" stroke-width="1" fill="none" fill-rule="evenodd">
        <g id="Login" transform="translate(-97.000000, -116.000000)">
            <g id="LOGO" transform="translate(99.000000, 120.000000)">
                <g id="Group" transform="translate(25.000000, 0.000000)">
                    <g id="Oval">
                        <use fill="black" fill-opacity="1" filter="url(#filter-2)" xlink:href="#path-1"></use>
                        <use stroke="#009999" stroke-width="5" fill="#FFFFFF" fill-rule="evenodd" xlink:href="#path-1"></use>
                    </g>
                    <g id="Group-57" transform="translate(29.000000, 17.000000)" stroke="#009999" stroke-width="3">
                        <polyline id="Stroke-1" points="41 80 0 80 0 9 11.53125 9"></polyline>
                        <polyline id="Stroke-3" points="45 9 57 9 57 41"></polyline>
                        <path d="M34.9,6.4516129 C34.9,2.58064516 31.9906,0 28.4,0 C24.8094,0 21.9,2.58064516 21.9,6.4516129 L15.4,6.4516129 L15.4,14.1935484 L41.4,14.1935484 L41.4,6.4516129 L34.9,6.4516129 Z" id="Stroke-4"></path>
                        <line x1="27.1" y1="6.4516129" x2="29.7" y2="6.4516129" id="Stroke-6"></line>
                        <line x1="51.8" y1="41.2903226" x2="51.8" y2="9.03225806" id="Stroke-8"></line>
                        <polyline id="Stroke-10" points="5 9.03225806 5 72.2580645 34.9 72.2580645"></polyline>
                        <line x1="54.4" y1="50.3225806" x2="54.4" y2="45.1612903" id="Stroke-12"></line>
                        <line x1="50.5" y1="45.1612903" x2="58.3" y2="45.1612903" id="Stroke-14"></line>
                        <path d="M55.7,64.516129 C55.7,65.2296774 55.1189,65.8064516 54.4,65.8064516 C53.6811,65.8064516 53.1,65.2296774 53.1,64.516129 C53.1,63.803871 53.6811,63.2258065 54.4,63.2258065 C55.1189,63.2258065 55.7,63.803871 55.7,64.516129 Z" id="Stroke-16"></path>
                        <path d="M58.58951,49.5967742 C65.17011,51.4148387 69.99961,57.4058065 69.99961,64.5167742 C69.99961,73.0677419 63.01471,79.9993548 54.39961,79.9993548 C45.78451,79.9993548 38.79961,73.0677419 38.79961,64.5167742 C38.79961,57.3967742 43.64211,51.3980645 50.23701,49.5916129" id="Stroke-18"></path>
                        <path d="M54.4,54.1935484 C48.6566,54.1935484 44,58.8154839 44,64.516129 C44,70.2180645 48.6566,74.8387097 54.4,74.8387097 C60.1434,74.8387097 64.8,69.6774194 64.8,64.516129 L54.4,64.516129" id="Stroke-20"></path>
                        <line x1="64.8" y1="54.1935484" x2="68.7" y2="50.3225806" id="Stroke-22"></line>
                        <line x1="40.1" y1="50.3225806" x2="44" y2="54.1935484" id="Stroke-24"></line>
                        <path d="M15.4,36.1290323 C15.4,36.8425806 14.8189,37.4193548 14.1,37.4193548 C13.3811,37.4193548 12.8,36.8425806 12.8,36.1290323 C12.8,35.4167742 13.3811,34.8387097 14.1,34.8387097 C14.8189,34.8387097 15.4,35.4167742 15.4,36.1290323 Z" id="Stroke-26"></path>
                        <path d="M24.5,27.0967742 C24.5,27.8103226 23.9189,28.3870968 23.2,28.3870968 C22.4811,28.3870968 21.9,27.8103226 21.9,27.0967742 C21.9,26.3845161 22.4811,25.8064516 23.2,25.8064516 C23.9189,25.8064516 24.5,26.3845161 24.5,27.0967742 Z" id="Stroke-28"></path>
                        <path d="M33.6,36.1290323 C33.6,36.8425806 33.0189,37.4193548 32.3,37.4193548 C31.5811,37.4193548 31,36.8425806 31,36.1290323 C31,35.4167742 31.5811,34.8387097 32.3,34.8387097 C33.0189,34.8387097 33.6,35.4167742 33.6,36.1290323 Z" id="Stroke-30"></path>
                        <path d="M44,25.8064516 C44,26.52 43.4189,27.0967742 42.7,27.0967742 C41.9811,27.0967742 41.4,26.52 41.4,25.8064516 C41.4,25.0941935 41.9811,24.516129 42.7,24.516129 C43.4189,24.516129 44,25.0941935 44,25.8064516 Z" id="Stroke-32"></path>
                        <line x1="14.1" y1="36.1290323" x2="23.2" y2="27.0967742" id="Stroke-34"></line>
                        <line x1="23.2" y1="27.0967742" x2="32.3" y2="36.1290323" id="Stroke-36"></line>
                        <line x1="32.3" y1="36.1290323" x2="42.7" y2="25.8064516" id="Stroke-38"></line>
                        <line x1="11.5" y1="45.1612903" x2="14.1" y2="45.1612903" id="Stroke-40"></line>
                        <line x1="16.7" y1="45.1612903" x2="19.3" y2="45.1612903" id="Stroke-42"></line>
                        <line x1="21.9" y1="45.1612903" x2="24.5" y2="45.1612903" id="Stroke-44"></line>
                        <line x1="19.3" y1="50.3225806" x2="32.3" y2="50.3225806" id="Stroke-46"></line>
                        <line x1="11.5" y1="50.3225806" x2="16.7" y2="50.3225806" id="Stroke-48"></line>
                        <line x1="27.1" y1="55.483871" x2="32.3" y2="55.483871" id="Stroke-50"></line>
                        <line x1="11.5" y1="55.483871" x2="24.5" y2="55.483871" id="Stroke-52"></line>
                        <line x1="11.5" y1="60.6451613" x2="19.3" y2="60.6451613" id="Stroke-54"></line>
                    </g>
                </g>
                <g id="Group-10" transform="translate(0.000000, 20.000000)">
                    <g id="Group-3">
                        <mask id="mask-4" fill="white">
                            <use xlink:href="#path-3"></use>
                        </mask>
                        <g id="Clip-2"></g>
                        <path d="M49.4971023,25.2514205 C49.4971023,38.9196023 38.4169886,50.0002841 24.7482386,50.0002841 C11.080625,50.0002841 -5.68181818e-05,38.9196023 -5.68181818e-05,25.2514205 C-5.68181818e-05,11.5826705 11.080625,0.502556818 24.7482386,0.502556818 C38.4169886,0.502556818 49.4971023,11.5826705 49.4971023,25.2514205" id="Fill-1" fill="#0F3650" mask="url(#mask-4)"></path>
                    </g>
                    <path d="M12.2272727,33.1846154 C10.8288909,33.1846154 9.69090909,32.0353385 9.69090909,30.6230769 C9.69090909,29.2108154 10.8288909,28.0615385 12.2272727,28.0615385 C13.6256545,28.0615385 14.7636364,29.2108154 14.7636364,30.6230769 C14.7636364,32.0353385 13.6256545,33.1846154 12.2272727,33.1846154 M30.1317455,22.4523385 C28.3934909,24.0348 26.5464545,25.1909077 25.7545455,25.6571077 C24.9626364,25.1909077 23.1156,24.0348 21.3773455,22.4523385 C22.5361818,22.7295538 23.9869818,22.9384615 25.7545455,22.9384615 C27.5221091,22.9384615 28.9729091,22.7295538 30.1317455,22.4523385 M20.6818182,8.70769231 C21.1479455,8.70769231 21.5272727,9.09078462 21.5272727,9.56153846 C21.5272727,10.0322923 21.1479455,10.4153846 20.6818182,10.4153846 C20.2156909,10.4153846 19.8363636,10.0322923 19.8363636,9.56153846 C19.8363636,9.09078462 20.2156909,8.70769231 20.6818182,8.70769231 M30.8272727,10.4153846 C30.3611455,10.4153846 29.9818182,10.0322923 29.9818182,9.56153846 C29.9818182,9.09078462 30.3611455,8.70769231 30.8272727,8.70769231 C31.2934,8.70769231 31.6727273,9.09078462 31.6727273,9.56153846 C31.6727273,10.0322923 31.2934,10.4153846 30.8272727,10.4153846 M31.9545455,29.7692308 L26.6,29.7692308 L26.6,27.1388154 C28.4926909,26.0350769 35.6181818,21.5045692 35.6181818,15.8230769 L35.6181818,11.8384615 C35.6181818,10.3618769 34.5991273,9.12323077 33.2345636,8.79535385 C32.9099091,7.75878462 31.9601818,7 30.8272727,7 C29.4288909,7 28.2909091,8.14927692 28.2909091,9.56153846 C28.2909091,10.9738 29.4288909,12.1230769 30.8272727,12.1230769 C31.8694364,12.1230769 32.7644909,11.4849692 33.1545273,10.5753385 C33.6105091,10.811 33.9272727,11.2857385 33.9272727,11.8384615 L33.9272727,15.8230769 C33.9272727,17.1806923 33.3867455,18.4893538 32.5796182,19.6887231 C32.4499818,19.7769538 30.2343273,21.2307692 25.7545455,21.2307692 C21.2386909,21.2307692 19.0230364,19.7530462 18.9300364,19.6898615 C18.1223455,18.4899231 17.5818182,17.1806923 17.5818182,15.8230769 L17.5818182,11.8384615 C17.5818182,11.2857385 17.8985818,10.811 18.3545636,10.5753385 C18.7446,11.4849692 19.6396545,12.1230769 20.6818182,12.1230769 C22.0802,12.1230769 23.2181818,10.9738 23.2181818,9.56153846 C23.2181818,8.14927692 22.0802,7 20.6818182,7 C19.5489091,7 18.5991818,7.75878462 18.2745273,8.79535385 C16.9099636,9.12323077 15.8909091,10.3618769 15.8909091,11.8384615 L15.8909091,15.8230769 C15.8909091,21.5045692 23.0164,26.0350769 24.9090909,27.1388154 L24.9090909,29.7692308 L16.3694364,29.7692308 C15.9765818,27.8230308 14.2687636,26.3538462 12.2272727,26.3538462 C9.89607273,26.3538462 8,28.2687385 8,30.6230769 C8,32.9774154 9.89607273,34.8923077 12.2272727,34.8923077 C14.2687636,34.8923077 15.9765818,33.4231231 16.3694364,31.4769231 L31.9545455,31.4769231 C34.9068727,31.4769231 37.3090909,33.9029846 37.3090909,36.8846154 C37.3090909,39.8662462 34.9068727,42.2923077 31.9545455,42.2923077 C29.0022182,42.2923077 26.6,39.8662462 26.6,36.8846154 L26.6,32.3307692 L24.9090909,32.3307692 L24.9090909,36.8846154 C24.9090909,40.8083231 28.0694,44 31.9545455,44 C35.8396909,44 39,40.8083231 39,36.8846154 C39,32.9609077 35.8396909,29.7692308 31.9545455,29.7692308" id="Fill-4" fill="#FFFFFF"></path>
                    <path d="M32,33.7647059 L32,32 C29.2429412,32 27,34.2429412 27,37 C27,39.7570588 29.2429412,42 32,42 C34.7570588,42 37,39.7570588 37,37 L35.2352941,37 C35.2352941,38.7835294 33.7835294,40.2352941 32,40.2352941 C30.2164706,40.2352941 28.7647059,38.7835294 28.7647059,37 C28.7647059,35.2164706 30.2164706,33.7647059 32,33.7647059" id="Fill-6" fill="#FFFFFF"></path>
                    <path d="M10,30.5 C10,31.3274 10.6726,32 11.5,32 C12.3274,32 13,31.3274 13,30.5 C13,29.6726 12.3274,29 11.5,29 C10.6726,29 10,29.6726 10,30.5 Z" id="Fill-8" fill="#FFFFFF"></path>
                </g>
                <g id="Group-10" transform="translate(87.000000, 58.000000)">
                    <g id="Group-3">
                        <mask id="mask-6" fill="white">
                            <use xlink:href="#path-5"></use>
                        </mask>
                        <g id="Clip-2"></g>
                        <path d="M63.3568,32.3214545 C63.3568,49.8174545 49.1735273,64 31.6782545,64 C14.1829818,64 -0.000290909091,49.8174545 -0.000290909091,32.3214545 C-0.000290909091,14.8261818 14.1829818,0.642909091 31.6782545,0.642909091 C49.1735273,0.642909091 63.3568,14.8261818 63.3568,32.3214545" id="Fill-1" fill="#0F3650" mask="url(#mask-6)"></path>
                    </g>
                    <path d="M18,35.8078096 C19.3238068,39.1188852 20.8238793,42.871244 20.8238793,46.2904631 L20.8238793,55 L23,55 L23,46.2904631 C23,42.4517346 21.4165095,38.4925243 20.0201654,35 L18,35.8078096 Z" id="Fill-4" fill="#FFFFFF"></path>
                    <path d="M52.8983158,33.8692403 L48.5774737,24.8075969 C48.4448421,16.0697364 41.0594737,9 32,9 L32,11.1395349 C39.9232632,11.1395349 46.3684211,17.3784186 46.3684211,25.0465116 C46.3684211,25.2012713 46.4030526,25.3546047 46.4701053,25.4951008 L50.7894737,34.5524651 L50.7894737,34.6744186 L47.4736842,34.6744186 C46.8635789,34.6744186 46.3684211,35.1536744 46.3684211,35.744186 L46.3684211,42.1627907 C46.3684211,43.932186 44.8814737,45.372093 43.0526316,45.372093 L38.6315789,45.372093 L36.4210526,45.372093 L36.4210526,47.5116279 L37.5263158,47.5116279 L37.5263158,55 L39.7368421,55 L39.7368421,47.5116279 L43.0526316,47.5116279 C46.1002105,47.5116279 48.5789474,45.1124961 48.5789474,42.1627907 L48.5789474,36.8139535 L51.8947368,36.8139535 C52.5055789,36.8139535 53,36.3346977 53,35.744186 L53,34.3178295 C53,34.1630698 52.9653684,34.0097364 52.8983158,33.8692403" id="Fill-6" fill="#FFFFFF"></path>
                    <path d="M28.8783784,31.8571429 C28.0435676,31.8571429 27.2467027,31.7042857 26.5045676,31.4385714 C28.0815135,29.9235714 29.0914595,27.8535714 29.2184324,25.5557143 C31.2923243,24.3207143 32.8254865,22.3057143 33.3837297,19.9242857 C34.8665405,21.17 35.8108108,23.0135714 35.8108108,25.0714286 C35.8108108,28.8128571 32.7007027,31.8571429 28.8783784,31.8571429 M20.1216216,31.8571429 C16.2992973,31.8571429 13.1891892,28.8128571 13.1891892,25.0714286 C13.1891892,23.0135714 14.1334595,21.17 15.6162703,19.9242857 C16.1745135,22.3057143 17.7076757,24.3207143 19.7815676,25.5557143 C19.9085405,27.8535714 20.9184865,29.9235714 22.4954324,31.4385714 C21.7532973,31.7042857 20.9564324,31.8571429 20.1216216,31.8571429 M24.5,11.1428571 C27.8085946,11.1428571 30.5786486,13.4242857 31.2653243,16.4635714 C30.5027568,16.2607143 29.7051622,16.1428571 28.8783784,16.1428571 C27.2926757,16.1428571 25.8003784,16.5428571 24.5,17.2421429 C23.1996216,16.5428571 21.7073243,16.1428571 20.1216216,16.1428571 C19.2948378,16.1428571 18.4972432,16.2607143 17.7346757,16.4635714 C18.4213514,13.4242857 21.1914054,11.1428571 24.5,11.1428571 M24.5,24.7142857 C23.6184865,24.7142857 22.7778378,24.5464286 22.0021351,24.2514286 C22.2225135,22.4692857 23.1470811,20.8978571 24.5,19.8164286 C25.8529189,20.8978571 26.7774865,22.4692857 26.9978649,24.2514286 C26.2221622,24.5464286 25.3815135,24.7142857 24.5,24.7142857 M17.6237568,18.7485714 C18.3994595,18.4535714 19.2401081,18.2857143 20.1216216,18.2857143 C20.9564324,18.2857143 21.7532973,18.4385714 22.4954324,18.7042857 C21.2731351,19.8778571 20.3908919,21.3864286 19.9946486,23.0757143 C18.7125135,21.9978571 17.8368378,20.4728571 17.6237568,18.7485714 M24.5,30.3264286 C23.3134595,29.3771429 22.4552973,28.0514286 22.1130541,26.5364286 C22.8756216,26.7392857 23.6732162,26.8571429 24.5,26.8571429 C25.3267838,26.8571429 26.1243784,26.7392857 26.8869459,26.5364286 C26.5447027,28.0514286 25.6865405,29.3771429 24.5,30.3264286 M29.0053514,23.0757143 C28.6091081,21.3864286 27.7268649,19.8778571 26.5045676,18.7042857 C27.2467027,18.4385714 28.0435676,18.2857143 28.8783784,18.2857143 C29.7598919,18.2857143 30.6005405,18.4535714 31.3762432,18.7485714 C31.1631622,20.4728571 30.2874865,21.9978571 29.0053514,23.0757143 M33.5968108,17.4442857 C33.337027,12.7471429 29.3629189,9 24.5,9 C19.6370811,9 15.662973,12.7471429 15.4031892,17.4442857 C12.7688649,19.0121429 11,21.84 11,25.0714286 C11,29.995 15.0915946,34 20.1216216,34 C21.7073243,34 23.1996216,33.6 24.5,32.9007143 C25.8003784,33.6 27.2926757,34 28.8783784,34 C33.9084054,34 38,29.995 38,25.0714286 C38,21.84 36.2311351,19.0121429 33.5968108,17.4442857" id="Fill-8" fill="#FFFFFF"></path>
                </g>
            </g>
        </g>
    </g>
</svg>